{"title":"James Deens Sex Tapes Porn Stars XXX - All Disc - NEW 2014","uid":10944639,"size":3396655556,"categoryP":"porn","categoryS":"movies","magnet":"?xt=urn:btih:d9e853804ec24d2002f5185275e72de45da044e2&amp;dn=James+Deens+Sex+Tapes+Porn+Stars+XXX+-+All+Disc+-+NEW+2014&amp;tr=udp%3A%2F%2Ftracker.openbittorrent.com%3A80&amp;tr=udp%3A%2F%2Fopen.demonii.com%3A1337&amp;tr=udp%3A%2F%2Ftracker.coppersurfer.tk%3A6969&amp;tr=udp%3A%2F%2Fexodus.desync.com%3A6969","seeders":0,"leechers":0,"uploader":"iH2OSO4","files":-1,"time":1409589495,"description":"James Deens Sex Tapes Porn Stars XXX - All Disc - NEW 2014\n\nJames Deen's Sex Tapes: Porn Stars James Deen headlines some of the biggest and most beautiful porn stars in this special 2 disc set that includes memorable performances that should not be missed!\n\nSOURCE :   &lt;a href=&quot; http://nuscotower.com/i/james543sdv.html&quot; rel=&quot;nofollow&quot; target=&quot;_NEW&quot;&gt; http://nuscotower.com/i/james543sdv.html&lt;/a&gt;\n\nGeneral\nJames.Deens.Sex.Tapes.Porn.Stars.DiSC.1.And.2.XXX.2014.DVDRip-eUDOXiU - 1.mp4\nFormat                           : MPEG-4\nFormat profile                   : Base Media\nCodec ID                         : isom\nFile size                        : 1.41 GiB\nDuration                         : 2h 1mn\nOverall bit rate                 : 1 663 Kbps\nEncoded date                     : UTC 2014-08-31 22:03:03\nTagged date                      : UTC 2014-08-31 22:03:03\n\nVideo\nID                               : 1\nFormat                           : MPEG-4 Visual\nFormat profile                   : Simple@L1\nFormat settings, BVOP            : No\nFormat settings, QPel            : No\nFormat settings, GMC             : No warppoints\nFormat settings, Matrix          : Default (H.263)\nCodec ID                         : 20\nDuration                         : 2h 1mn\nBit rate mode                    : Variable\nBit rate                         : 1 535 Kbps\nMaximum bit rate                 : 8 457 Kbps\nWidth                            : 856 pixels\nHeight                           : 480 pixels\nDisplay aspect ratio             : 16:9\nFrame rate mode                  : Constant\nFrame rate                       : 23.976 fps\nColor space                      : YUV\nChroma subsampling               : 4:2:0\nBit depth                        : 8 bits\nScan type                        : Progressive\nCompression mode                 : Lossy\nBits/(Pixel*Frame)               : 0.156\nStream size                      : 1.30 GiB (92%)\nWriting library                  : Lavc53.8.0\nEncoded date                     : UTC 2014-08-31 22:03:03\nTagged date                      : UTC 2014-08-31 22:04:35\n\nAudio\nID                               : 2\nFormat                           : AAC\nFormat/Info                      : Advanced Audio Codec\nFormat profile                   : LC\nCodec ID                         : 40\nDuration                         : 2h 1mn\nBit rate mode                    : Variable\nBit rate                         : 126 Kbps\nMaximum bit rate                 : 253 Kbps\nChannel(s)                       : 2 channels\nChannel positions                : Front: L R\nSampling rate                    : 44.1 KHz\nCompression mode                 : Lossy\nStream size                      : 109 MiB (8%)\nEncoded date                     : UTC 2014-08-31 22:04:13\nTagged date                      : UTC 2014-08-31 22:04:35\n\n//////////////////\n\nGeneral\nJames.Deens.Sex.Tapes.Porn.Stars.DiSC.1.And.2.XXX.2014.DVDRip-eUDOXiU - 2.mp4\nFormat                           : MPEG-4\nFormat profile                   : Base Media\nCodec ID                         : isom\nFile size                        : 1.76 GiB\nDuration                         : 2h 31mn\nOverall bit rate                 : 1 656 Kbps\nEncoded date                     : UTC 2014-08-31 23:53:05\nTagged date                      : UTC 2014-08-31 23:53:05\n\nVideo\nID                               : 1\nFormat                           : MPEG-4 Visual\nFormat profile                   : Simple@L1\nFormat settings, BVOP            : No\nFormat settings, QPel            : No\nFormat settings, GMC             : No warppoints\nFormat settings, Matrix          : Default (H.263)\nCodec ID                         : 20\nDuration                         : 2h 31mn\nBit rate mode                    : Variable\nBit rate                         : 1 529 Kbps\nMaximum bit rate                 : 17.0 Mbps\nWidth                            : 856 pixels\nHeight                           : 480 pixels\nDisplay aspect ratio             : 16:9\nFrame rate mode                  : Constant\nFrame rate                       : 23.976 fps\nColor space                      : YUV\nChroma subsampling               : 4:2:0\nBit depth                        : 8 bits\nScan type                        : Progressive\nCompression mode                 : Lossy\nBits/(Pixel*Frame)               : 0.155\nStream size                      : 1.62 GiB (92%)\nWriting library                  : Lavc53.8.0\nEncoded date                     : UTC 2014-08-31 23:53:05\nTagged date                      : UTC 2014-08-31 23:55:01\n\nAudio\nID                               : 2\nFormat                           : AAC\nFormat/Info                      : Advanced Audio Codec\nFormat profile                   : LC\nCodec ID                         : 40\nDuration                         : 2h 31mn\nBit rate mode                    : Variable\nBit rate                         : 125 Kbps\nMaximum bit rate                 : 229 Kbps\nChannel(s)                       : 2 channels\nChannel positions                : Front: L R\nSampling rate                    : 44.1 KHz\nCompression mode                 : Lossy\nStream size                      : 136 MiB (8%)\nEncoded date                     : UTC 2014-08-31 23:54:26\nTagged date                      : UTC 2014-08-31 23:55:01\n\n","torrent":{"xt":"urn:btih:d9e853804ec24d2002f5185275e72de45da044e2","amp;dn":"James+Deens+Sex+Tapes+Porn+Stars+XXX+-+All+Disc+-+NEW+2014","amp;tr":["udp%3A%2F%2Ftracker.openbittorrent.com%3A80","udp%3A%2F%2Fopen.demonii.com%3A1337","udp%3A%2F%2Ftracker.coppersurfer.tk%3A6969","udp%3A%2F%2Fexodus.desync.com%3A6969"],"infoHash":"d9e853804ec24d2002f5185275e72de45da044e2","infoHashBuffer":{"type":"Buffer","data":[217,232,83,128,78,194,77,32,2,245,24,82,117,231,45,228,93,160,68,226]},"announce":[],"urlList":[]}}